<svg width="170" height="170" viewBox="0 0 170 170" fill="none" xmlns="http://www.w3.org/2000/svg">
<path d="M31.5 68L24.5 68.5L19.5 71L16 74.5L17 76L18.5 77.5L17 81.5L16 85V89L17.5 94L20.5 98.5L22.6 100.527L23.5333 101.455L21.5 103.5L20.5 108V112.5L22 116.5L24.5 118.5L27.5 119L31 119.073L31.5 68Z" fill="white" stroke="white" stroke-linecap="round" stroke-linejoin="round"/>
<path d="M130.546 149.988L131.886 160L136.493 149.988C133.813 148.163 132.422 147.654 130.546 149.988Z" fill="black"/>
<path d="M125.436 33.2556L101.479 17.6423L100.557 36.0109L125.436 33.2556Z" fill="#F2F481"/>
<path d="M47.1143 48.6367L45.2714 69.0752C45.4477 71.9193 46.1516 73.0106 48.9571 73.6674L64.6214 75.5042C67.6556 75.6617 68.5637 74.9775 69.2286 72.7489L71.0714 50.9808C63.4401 50.491 55.6242 49.6684 47.1143 48.6367Z" fill="black"/>
<path fill-rule="evenodd" clip-rule="evenodd" d="M107.007 50.4121C106.994 50.4135 106.981 50.4148 106.968 50.4161C99.2216 51.1948 92.0026 51.5148 84.8929 51.4775V72.7489C85.2086 75.6368 86.3158 76.0709 88.5786 76.4227L107.007 74.5858C108.368 73.9516 108.899 73.299 108.85 70.9121L107.007 50.4121Z" fill="black"/>
<path fill-rule="evenodd" clip-rule="evenodd" d="M30.5286 18.5611C32.8891 96.6387 32.2058 132.048 25 147.142C60.3858 150.908 80.8723 150.522 118.064 147.142C119.307 130.95 119.977 116.857 120.651 102.694C121.636 81.966 122.629 61.0869 125.436 33.2556L100.557 36.0109L101.479 17.6423C76.8533 20.719 64.6394 20.1493 37.9368 18.9037L37.0497 18.8624C34.9678 18.7653 32.7982 18.6644 30.5286 18.5611ZM48.9571 97.5461C70.3114 100.599 82.0548 99.3814 102.4 92.9539C95.1601 138.513 55.8147 104.193 48.9571 97.5461ZM45.2714 69.0752L47.1143 48.6367C55.6242 49.6684 63.4401 50.491 71.0714 50.9808C75.7087 51.2784 80.2777 51.4532 84.8929 51.4775C92.0026 51.5148 99.2216 51.1948 106.968 50.4161C106.981 50.4148 106.994 50.4135 107.007 50.4121L108.85 70.9121C108.899 73.299 108.368 73.9516 107.007 74.5858L88.5786 76.4227C86.3158 76.0709 85.2086 75.6368 84.8929 72.7489V51.4775C80.2777 51.4532 75.7087 51.2784 71.0714 50.9808L69.2286 72.7489C68.5637 74.9775 67.6556 75.6617 64.6214 75.5042L48.9571 73.6674C46.1516 73.0106 45.4477 71.9193 45.2714 69.0752Z" fill="#FDFF9E"/>
<path d="M48.9571 97.5461C70.3114 100.599 82.0548 99.3814 102.4 92.9539C95.1601 138.513 55.8147 104.193 48.9571 97.5461Z" fill="black"/>
<path d="M139.257 7.53978C135.996 57.5322 134.162 85.5549 128.2 132.447C135.831 130.278 139.345 130.689 142.943 137.039C145.012 92.8838 148.049 63.3726 154 9.37664C148.984 4.44792 145.857 3.46587 139.257 7.53978Z" fill="#D98D1C"/>
<path d="M142.943 137.039C139.345 130.689 135.831 130.278 128.2 132.447L130.546 149.988C132.422 147.654 133.813 148.163 136.493 149.988L142.943 137.039Z" fill="#FCD8A2"/>
<path d="M101.479 17.6423L125.436 33.2556M101.479 17.6423L100.557 36.0109L125.436 33.2556M101.479 17.6423C76.8533 20.719 64.6394 20.1493 37.9368 18.9037M125.436 33.2556C122.629 61.0869 121.636 81.966 120.651 102.694C119.977 116.857 119.307 130.95 118.064 147.142C80.8723 150.522 60.3858 150.908 25 147.142C32.2058 132.048 32.8891 96.6387 30.5286 18.5611C32.7982 18.6644 34.9678 18.7653 37.0497 18.8624M128.2 132.447C134.162 85.5549 135.996 57.5322 139.257 7.53978C145.857 3.46587 148.984 4.44792 154 9.37664C148.049 63.3726 145.012 92.8838 142.943 137.039M128.2 132.447C135.831 130.278 139.345 130.689 142.943 137.039M128.2 132.447L130.546 149.988M142.943 137.039L136.493 149.988M130.546 149.988L131.886 160L136.493 149.988M130.546 149.988C132.422 147.654 133.813 148.163 136.493 149.988M138.336 22.235C146.344 18.2009 148.394 19.1291 152.157 24.0716M41.5857 47.9512C43.4632 48.1883 45.3044 48.4172 47.1143 48.6367M112.536 49.7881C110.647 50.0237 108.793 50.2327 106.968 50.4161M47.1143 48.6367L45.2714 69.0752C45.4477 71.9193 46.1516 73.0106 48.9571 73.6674L64.6214 75.5042C67.6556 75.6617 68.5637 74.9775 69.2286 72.7489L71.0714 50.9808M47.1143 48.6367C55.6242 49.6684 63.4401 50.491 71.0714 50.9808M71.0714 50.9808C75.7087 51.2784 80.2777 51.4532 84.8929 51.4775M71.0714 50.9808C82.8525 51.737 94.1934 51.7002 106.968 50.4161M84.8929 51.4775V72.7489C85.2086 75.6368 86.3158 76.0709 88.5786 76.4227L107.007 74.5858C108.368 73.9516 108.899 73.299 108.85 70.9121L107.007 50.4121C106.994 50.4135 106.981 50.4148 106.968 50.4161M84.8929 51.4775C92.0026 51.5148 99.2216 51.1948 106.968 50.4161M37.9368 18.9037C37.643 18.89 37.3471 18.8762 37.0497 18.8624M37.9368 18.9037L37.0497 18.8624M48.9571 97.5461C70.3114 100.599 82.0548 99.3814 102.4 92.9539C95.1601 138.513 55.8147 104.193 48.9571 97.5461Z" stroke="black" stroke-linejoin="round"/>
<path d="M92.875 136.066L92.8212 135.569L92.4947 135.604L92.3974 135.918L92.875 136.066ZM92.875 141.364L92.7627 140.877C92.5994 140.914 92.4658 141.031 92.4069 141.188C92.348 141.345 92.3716 141.521 92.4699 141.657L92.875 141.364ZM95.3449 145.631L95.638 146.036L96.4482 145.45L96.1551 145.045L95.3449 145.631ZM102.219 137.39L102.693 137.232L102.289 136.021L101.763 137.184L102.219 137.39ZM108.688 136.066L108.688 135.566L108.264 135.566L108.194 135.983L108.688 136.066ZM107.969 140.37L107.475 140.288L107.474 140.299L107.969 140.37ZM90.4776 145.486L93.3526 136.214L92.3974 135.918L89.5224 145.19L90.4776 145.486ZM92.9288 136.563C94.4274 136.401 95.4539 136.57 96.0754 136.874C96.6756 137.168 96.8701 137.563 96.8531 137.945C96.8343 138.37 96.5478 138.934 95.8563 139.495C95.1743 140.048 94.1428 140.559 92.7627 140.877L92.9873 141.851C94.4822 141.507 95.662 140.94 96.4863 140.271C97.3011 139.61 97.8159 138.806 97.8521 137.989C97.8903 137.128 97.3935 136.406 96.5149 135.976C95.6576 135.556 94.4177 135.396 92.8212 135.569L92.9288 136.563ZM92.4699 141.657L95.3449 145.631L96.1551 145.045L93.2801 141.071L92.4699 141.657ZM99.0806 145.544L102.674 137.596L101.763 137.184L98.1694 145.132L99.0806 145.544ZM101.744 137.548L104.619 146.158L105.568 145.842L102.693 137.232L101.744 137.548ZM108.687 136.566L113 136.566L113 135.566L108.688 135.566L108.687 136.566ZM107.745 145.41L108.464 140.442L107.474 140.299L106.755 145.266L107.745 145.41ZM108.462 140.453L109.181 136.148L108.194 135.983L107.476 140.288L108.462 140.453ZM107.969 140.87H110.844V139.87H107.969V140.87ZM97.9969 143.18L105.184 141.856L105.003 140.872L97.8156 142.197L97.9969 143.18Z" fill="black"/>
<path d="M123.5 65.5L125.7 64.7623L128 60.1721L129.4 57.418L131 56L135.5 56.5L140.5 60.1721L142.35 64.7623L143 67.5L144.5 66L148.825 64.7623L149.75 58.3361L152.525 60.1721L155.3 64.7623L156.5 69.5L156.225 72.1066L155.3 74.8607L158.075 76.6967L159 81.2869V85.877L158.075 90.4672L155.5 93.5L154.5 95L155.3 96.8934L156 97.5L156.225 98.7295V103.32L154.375 107.91L151.5 110.5L146.05 112.5H139.575L134.025 111.582L131.25 108.828L127.55 104.238L123.85 103.32L121.5 101L123.5 65.5Z" fill="white"/>
<path d="M155.3 96.8934C156.04 96.8934 156 97.5 156 97.5M155.3 96.8934L156 97.5M155.3 96.8934L154.5 95L155.5 93.5L158.075 90.4672L159 85.877V81.2869L158.075 76.6967L155.3 74.8607L156.225 72.1066L156.5 69.5L155.3 64.7623L152.525 60.1721L149.75 58.3361L148.825 64.7623L144.5 66L143 67.5L142.35 64.7623L140.5 60.1721L135.5 56.5L131 56L129.4 57.418L128 60.1721L125.7 64.7623L123.5 65.5L121.5 101L123.85 103.32L127.55 104.238L131.25 108.828L134.025 111.582L139.575 112.5H146.05L151.5 110.5L154.375 107.91L156.225 103.32V98.7295L156 97.5" stroke="white" stroke-linecap="round" stroke-linejoin="round"/>
<path d="M30.1599 72.5019C26.7924 72.655 23.4142 73.3156 20.6899 75.2471C17.4999 77.5087 16.0495 81.5154 15.6658 85.3202C14.8188 93.7195 20.8194 101.784 28.3385 104.792" stroke="black" stroke-linecap="round"/>
<path d="M22.7946 101.964C21.7546 102.196 20.4445 105.075 20.2405 105.866C19.6277 108.243 19.4735 110.933 20.3779 113.253C21.674 116.577 22.847 119.013 26.4774 119.458C27.4812 119.581 30.1602 119.505 30.1602 118.537" stroke="black" stroke-linecap="round"/>
<path d="M18.2153 76.8962C15.4672 76.8962 15.1718 74.2783 17.0405 72.847C18.9545 71.3809 20.532 69.4957 22.7947 68.7969C25.3207 68.0168 28.4694 68.2715 31.081 67.8984" stroke="black" stroke-linecap="round"/>
<path d="M124 69.8174C124.168 67.9879 125.164 65.9449 125.95 64.3142C126.483 63.211 127 62.0976 127.522 60.9897C128.164 59.6295 128.67 57.7454 129.829 56.7007C131.274 55.3974 133.018 56.2353 134.544 56.6439C136.402 57.1415 137.977 58.0057 139.512 59.1515C142.05 61.0462 143 63.9984 143 67.0715C143 69.0493 142.676 72.0674 142.432 74" stroke="black" stroke-linecap="round"/>
<path d="M129.049 69C129.705 71.7838 128.517 75.1656 128.159 77.9206C127.905 79.8711 127.947 81.5966 128.341 83.5166C128.734 85.4301 129.072 87.6288 130.282 89.1008C131.634 90.7448 134.009 91.979 135.985 91.9994C136.301 92.0027 137.793 91.7303 139 91.5" stroke="black" stroke-linecap="round"/>
<path d="M142.37 74C142.37 76.0194 142.649 77.1708 142.999 79.1419C143.309 80.8896 143.444 82.6499 143.786 84.3954C144.039 85.6916 144.18 87.0811 143.551 88.3268C142.917 89.5823 140.298 91.0637 139 91.5" stroke="black" stroke-linecap="round"/>
<path d="M148.853 57C149.875 57.2949 150.663 58.2984 151.377 59.0536C152.239 59.9655 153.002 60.6205 153.63 61.746C155.451 65.0052 157.996 68.9876 156.596 73.0064C156.092 74.4532 155.07 75.3972 153.986 76.3492C152.448 77.7003 150.705 77.903 148.939 78.7222C148.05 79.1348 148 78.9574 146.5 79.5C145.365 79.9107 144.691 80 144 80" stroke="black" stroke-linecap="round"/>
<path d="M130.5 89.5C130.5 90.1915 130.88 89.4398 130.383 89.9244C129.879 90.4155 129.108 92.457 129.025 93.1533C128.829 94.7806 129.827 96.7561 130.996 97.7692C133.19 99.6705 135.666 101.79 138.67 101.79C141.626 101.79 145.273 102.663 147.965 100.851C149.791 99.6217 151.899 98.1915 153.549 96.7612C154.365 96.0547 155.114 95.0662 155.884 94.2872C156.721 93.4406 157.601 92.4974 158.263 91.4925C159.006 90.3642 159.738 89.2186 159.738 87.8273C159.738 86.311 160.089 85.1249 159.979 83.395C159.86 81.5416 159.702 80.145 159.082 78.7311C158.672 77.797 157.651 75 156.391 75" stroke="black" stroke-linecap="round"/>
<path d="M131.052 98.6822C131.947 99.5421 129.263 99.5421 128.369 101.262C127.474 102.982 128.26 105.686 130.157 108.141C132.207 111.009 135.525 113 139.336 113C143.147 113 144.585 112.811 147.154 112.441C148.302 112.275 150.625 111.26 151.626 110.721C154.651 109.091 155.323 108.885 156.187 105.561C156.652 103.772 156.9 102.25 156.994 100.402C157.045 99.3921 156.772 98.237 156.187 97.2882C155.92 96.8555 156.187 96.9624 155.484 96" stroke="black" stroke-linecap="round"/>
<path d="M128 105C126.545 105 123.558 104.134 122.5 103C121.782 102.23 121.307 102.016 121 101" stroke="black" stroke-linecap="round"/>
<path d="M122.5 66C123.066 64.6962 125.488 65.3586 126 64.5" stroke="black" stroke-linecap="round"/>
<path d="M143.5 66.5C145 65 146 65 148 64.5C148.329 64.4849 149 64.5 149.5 64.5" stroke="black" stroke-linecap="round"/>
</svg>
